Coordinates
version=1
nRows=14
nColumns=38
inDegrees=no

Units are S.I. units (second, meters, Newtons, ...)
If the header above contains a line with 'inDegrees', this indicates whether rotational values are in degrees (yes) or radians (no).

endheader
time	pelvis_tilt	pelvis_list	pelvis_rotation	pelvis_tx	pelvis_ty	pelvis_tz	hip_flexion_r	hip_adduction_r	hip_rotation_r	knee_angle_r	ankle_angle_r	subtalar_angle_r	mtp_angle_r	hip_flexion_l	hip_adduction_l	hip_rotation_l	knee_angle_l	ankle_angle_l	subtalar_angle_l	mtp_angle_l	lumbar_extension	lumbar_bending	lumbar_rotation	arm_flex_r	arm_add_r	arm_rot_r	elbow_flex_r	pro_sup_r	wrist_flex_r	wrist_dev_r	arm_flex_l	arm_add_l	arm_rot_l	elbow_flex_l	pro_sup_l	wrist_flex_l	wrist_dev_l
1.54	0.0553877	1.32621	-1.74401	0.735092	-0.00125917	0.944664	-0.308305	0.0235667	-0.237727	0.142603	0.126056	0	0	0.386697	-0.149183	-0.222969	0.956945	0.0669058	0	0	-0.2209	0.0239091	0.0626313	0.350372	-0.11003	-0.520817	1.71958	0	0	0	0.506933	-0.253306	-0.376221	1.55262	0.670608	0	0
1.55	0.0737215	1.32954	-1.76514	0.734452	-0.012009	0.943863	-0.321958	0.0191783	-0.232658	0.132612	0.131303	0	0	0.379867	-0.139481	-0.244347	0.878336	0.0706341	0	0	-0.217791	0.0191903	0.0644146	0.352669	-0.109352	-0.522106	1.72481	0	0	0	0.508288	-0.253793	-0.375284	1.55096	0.673451	0	0
1.56	0.0895647	1.33369	-1.7831	0.734025	-0.0229394	0.94277	-0.335237	0.0155628	-0.228549	0.122516	0.137442	0	0	0.371475	-0.129281	-0.266317	0.79567	0.0740005	0	0	-0.213507	0.0159242	0.0655963	0.354779	-0.10904	-0.523025	1.73001	0	0	0	0.509089	-0.253548	-0.374661	1.54932	0.676734	0	0
1.57	0.0992083	1.33992	-1.7937	0.733871	-0.0340926	0.941221	-0.347066	0.014089	-0.225468	0.112758	0.144269	0	0	0.364208	-0.119661	-0.287768	0.711793	0.0766789	0	0	-0.206743	0.015419	0.065784	0.356369	-0.109283	-0.523647	1.73508	0	0	0	0.508945	-0.252415	-0.37453	1.54761	0.680269	0	0
1.58	0.0998514	1.34912	-1.79415	0.734042	-0.0455453	0.939032	-0.355771	0.0154248	-0.223156	0.10479	0.15342	0	0	0.361299	-0.114009	-0.313895	0.63279	0.0772184	0	0	-0.19639	0.018514	0.0650811	0.357349	-0.1107	-0.523914	1.74044	0	0	0	0.50777	-0.250311	-0.374975	1.54597	0.685145	0	0
1.59	0.102264	1.35845	-1.79585	0.734437	-0.0571475	0.936633	-0.364434	0.0160909	-0.221311	0.0972165	0.162987	0	0	0.357562	-0.104029	-0.336169	0.55257	0.0765381	0	0	-0.185436	0.0216865	0.063906	0.357866	-0.112632	-0.523725	1.74563	0	0	0	0.506961	-0.247192	-0.380458	1.53983	0.620073	0	0
1.6	0.108023	1.36821	-1.80001	0.73503	-0.0688345	0.934047	-0.372557	0.0160414	-0.221778	0.0895559	0.169733	0	0	0.3535	-0.0905	-0.354024	0.47331	0.0789399	0	0	-0.173395	0.024365	0.0620715	0.358215	-0.114428	-0.52387	1.74967	0	0	0	0.505543	-0.243939	-0.381887	1.53721	0.625507	0	0
1.61	0.164869	1.36545	-1.86023	0.736587	-0.0818225	0.933313	-0.392545	-0.00308797	-0.228458	0.0822212	0.178856	0	0	0.322196	-0.0541886	-0.369668	0.369693	0.0766984	0	0	-0.168935	0.0151529	0.0638699	0.356894	-0.117804	-0.524229	1.75095	0	0	0	0.500811	-0.2372	-0.38606	1.5323	0.632286	0	0
1.62	0.1484	1.38394	-1.8359	0.736577	-0.0921674	0.929156	-0.388303	0.00844725	-0.232198	0.081197	0.187688	0	0	0.327565	-0.0432907	-0.352078	0.296583	0.0816777	0	0	-0.151375	0.0230789	0.0566919	0.360128	-0.11523	-0.526625	1.75094	0	0	0	0.503599	-0.238476	-0.383854	1.52958	0.637585	0	0
1.63	0.17448	1.38928	-1.86156	0.737186	-0.10413	0.926825	-0.397119	0.0024159	-0.237688	0.0800735	0.196804	0	0	0.301445	-0.0140856	-0.327965	0.19694	0.0746467	0	0	-0.141802	0.0207587	0.0556108	0.360644	-0.11513	-0.527499	1.7506	0	0	0	0.502145	-0.236835	-0.38364	1.52521	0.6431	0	0
1.64	0.19214	1.39501	-1.87954	0.737657	-0.116409	0.924197	-0.404618	-0.00193837	-0.243059	0.0819807	0.207336	0	0	0.27904	0.0077074	-0.305607	0.115667	0.0673993	0	0	-0.131368	0.0201995	0.0555775	0.360474	-0.115731	-0.527802	1.75019	0	0	0	0.500349	-0.235378	-0.383084	1.52089	0.6494	0	0
1.65	0.200031	1.40056	-1.88907	0.737698	-0.128862	0.92145	-0.411783	-0.00431057	-0.246043	0.0856614	0.216475	0	0	0.263985	0.022014	-0.2961	0.0613336	0.0612301	0	0	-0.121174	0.0206884	0.0566834	0.359892	-0.115507	-0.527856	1.75075	0	0	0	0.498624	-0.234894	-0.382539	1.51719	0.654897	0	0
1.66	0.204982	1.40295	-1.89798	0.737343	-0.141558	0.918965	-0.420497	-0.00843136	-0.250994	0.0935754	0.225936	0	0	0.247697	0.0343996	-0.2901	0.0210841	0.0479303	0	0	-0.113744	0.0202946	0.0597618	0.359677	-0.114596	-0.528171	1.74722	0	0	0	0.498345	-0.234296	-0.39101	1.50435	0.515338	0	0
1.67	0.201109	1.40374	-1.89913	0.736647	-0.154313	0.916607	-0.430761	-0.0118879	-0.255035	0.102759	0.235439	0	0	0.239653	0.0406242	-0.299645	0.0130682	0.043635	0	0	-0.108519	0.0200121	0.0645658	0.358597	-0.113631	-0.528857	1.74576	0	0	0	0.496412	-0.234579	-0.385047	1.50864	0.619255	0	0
